<?xml version="1.0" encoding="UTF-8"?>
<svg version="1.1" viewBox="0 0 939.12 817.33" xmlns="http://www.w3.org/2000/svg" width="24" height="24" >
 <defs>
  <style>.cls-1{fill:none;stroke:#A78BFA;stroke-linecap:round;stroke-linejoin:round;stroke-width:18px;}</style>
 </defs>
 <g fill="#A78BFA">
  <path class="cls-1" d="m132.2 618c0.88 11.15 1.46 22.33 4 33.27 2.93 12.54 5.59 25.25 12.82 36.19 4 6 5.61 11.39 1 17.9a18.49 18.49 0 0 0-3.15 13c0.79 6.77 4.89 12.13 8.68 17.22 11.24 15.09 27.13 24.34 44 31.63 14.89 6.45 30.24 11.81 45.73 16.87 27.09 8.84 54.83 14.75 82.72 19.83 20 3.64 40.37 4.71 61.66 4.35 12.67 0.18 26.18-1.19 39.73-1.79 18.34-0.82 36.66-1.59 54.84-4.27 14.28-2.1 28.7-3.62 42.75-6.75 21.78-4.84 43.58-9.59 64.85-16.76 11.92-4 20.12-10.92 25.54-21.51 3.55-6.92 6.19-14.33 8.86-21.66a242.27 242.27 0 0 0 10.45-38.66 542.69 542.69 0 0 0 7.53-55.07 324.47 324.47 0 0 0-2.56-71.25c-2-14.52-3.78-29.23-8.74-43.18-1.9-5.35-2-11.2-5-16.22-4-6.69-10.32-10.3-17.08-13.42-11.21-5.17-22.9-9.33-33.32-16.1-26.47-17.19-49.65-37.9-67.88-63.81-2-2.81-2.87-2.38-4.5 0.09-2.71 4.1-5.87 7.91-8.47 12.07-6.59 10.53-14.34 20.24-22.22 29.74q-14.44 17.29-29.44 34.14c-15.18 17.15-31.84 32.5-49.36 47.15-6.85 5.71-15.21 9.83-19.13 18.67a81.1 81.1 0 0 0-6.24 22c-1.71 12.7-11.76 19.84-24.37 17.67-9.63-1.65-18.58-4.93-27.45-8.66-16-6.71-31.59-14.25-45.43-24.77-16.14-12.27-31.24-25.77-44.46-41.23-10.14-11.86-21.16-23.13-28.77-36.85-4.34-7.84-10.43-14.43-14.29-22.65-4.21-9-10.67-16.85-14.79-26-0.37-0.81-1.44-1.83-2.17-1.82-0.89 0-1.16 1.25-1.46 2.28a42.47 42.47 0 0 1-2.52 6.34c-6.89 14.58-13.47 29.37-18 44.82-4.43 15.17-8.85 30.39-10.75 46.28-1.79 15-4.08 30-4.49 45.15a334.41 334.41 0 0 0 0.88 35.77z"/>
  <path d="m938.8 121.5c0.47 16.05 0.39 31.15-2.08 46-1.8 10.9-3.77 21.77-6.53 32.55-3.79 14.8-6.74 29.82-11.35 44.43-4.41 14-9.14 27.83-15.87 40.9-0.67 1.31-0.54 3.73-2.8 3.34s-4.23-1.17-5.1-3.77c-4.11-12.16-8.19-24.33-13-36.25a435.18 435.18 0 0 0-27.18-55.7c-10-17.27-22.48-32.62-35.11-47.91-8.26-10-8.4-14.74 0.65-24.44 7.19-7.71 14.26-15.57 21.73-23 16-16 34.18-29.09 53.73-40.38 5.09-2.94 10.11-6 15.17-9 4.08-2.42 8.88-1.77 13.23-3.07 0.77-0.23 1.93 0.15 2.42-0.3 5.21-4.79 5.34-0.42 6.23 3.24a208.77 208.77 0 0 1 4.74 32.57c1.13 13.87 1.86 27.81 1.12 40.79z"/>
  <path d="m7.51 79.63c0-11.83-0.08-23.66 0-35.49 0-3.88 3.52-6.65 4-10.49 0-0.17 0.51-0.35 0.81-0.4 2.79-0.43 4.37 1.83 6.5 2.89 1.8 0.89 5.18-1.66 5.36 3 0.1 2.5 3.21 3.44 4.86 5.19 8.52 9 18 17 25.85 26.74 2.12 2.63 5.26 5.81 10.52 5.74 2.78 0 6.08 4.9 8.37 8.15a212.77 212.77 0 0 1 13.93 21.59c7.32 13.6 16.63 26.08 22.62 40.41 1.25 3-0.44 5.7-1.42 8.33-3.56 9.63-10.61 17.2-15.7 25.94-4.86 8.35-10.82 16-16 24.08-6.15 9.55-10.6 20.22-17.26 29.48-5.4 7.52-9.21 16.24-16.86 22.16-3.41 2.63-4.65 2.57-6.56-1.3-2-4.08-4.77-7.73-7-11.72-4.34-7.7-7-16-10.44-24-4.76-11.31-6.08-23.26-8.25-35.06-1.3-7.1-1.77-14.36-2.44-21.56-1.55-16.73-1-33.52-1.15-50.29-0.1-11.11 0-22.22 0-33.33z"/>
  <path d="m49.16 12.21c7.65 0 13.81 0.09 20 0 18.25-0.28 36.4 1.59 54.6 2.32q17.08 0.69 34.15 1.9a347.26 347.26 0 0 1 42 5.31c8.18 1.59 16.36 3.24 24.61 4.41 4.18 0.6 6.36 3.91 9.59 5.74 2.12 1.21 0.94 2.25-0.69 3.56-7.27 5.91-15.49 10.37-23.15 15.67-18.27 12.59-35.52 26.47-50.38 42.93-10.13 11.21-19.33 23.26-28.8 35.05-3.78 4.72-5.34 4.74-8-0.54-12.21-24.26-25.3-48-42.42-69.24a215.31 215.31 0 0 0-36.51-35.25c-3-2.29-7.61-4.78-7.31-8.08 0.28-3 5.87-1.88 8.9-3.32a7.67 7.67 0 0 1 3.41-0.46z"/>
  <path d="m783.69 15.28c20.1-1.76 40.25-0.34 60.33-1.26 13.45-0.61 26.72 0.44 40.06 1.22a9.4 9.4 0 0 1 3.63 1.18c3.67 1.75 7.2 2.69 11.54 0.48s9.06-0.17 13.27 1.74c2 0.89 1.37 2.56-0.35 3.27-14.2 5.92-27 14.44-40.63 21.51-8.19 4.26-15.26 10.7-22.79 16.22a158.41 158.41 0 0 0-24 22.22c-8.59 9.53-16.76 19.45-24.84 29.44-4.19 5.18-4.75 5.28-10.2 1-11.68-9.14-21.8-20-33.35-29.31-13.31-10.67-26.69-21.26-40.88-30.76a217.14 217.14 0 0 1-19.76-14.66c-2.39-2-2.18-2.62 0.11-4.19 13-8.94 28.44-10.12 43.26-13.13a280.72 280.72 0 0 1 44.6-4.97z"/>
  <path d="m911.61 459.78c-4.38-20.1-6.35-40.6-10.68-60.7-5.28-24.54-9.25-49.41-17.18-73.32-2.63-7.94-3-16.33-5.87-24.25-4.86-13.49-10.47-26.68-15.69-40-7.91-20.21-18.44-39.11-28.71-58.1-5.82-10.76-13.63-20.41-20.48-30.53-12.47-18.35-28.89-33-44.58-48.27a438.74 438.74 0 0 0-33.42-29.51c-22.41-17.76-44-36.43-69.85-49.56-14.78-7.54-29.7-14.23-45.53-18.84s-32.11-7.5-48.36-10.41c-12.1-2.17-24.46-2.29-36.52-5-11.19-2.46-22.74-3.2-33.93-5.38-15.38-2.99-30.81-4.41-46.38-5.5-25.73-1.8-50.83 2.59-75.82 7.94-7 1.48-13.8 3.81-20.83 4.74a215.63 215.63 0 0 0-34.44 7.27 312.25 312.25 0 0 0-69.72 30.64c-19.32 11.51-38 24-55 38.68-17.92 15.56-33.66 33.44-47.89 52.48q-18.5 24.72-35.78 50.33c-17.08 25.37-32.14 52-49.83 77-9.76 13.79-19 28-30.55 40.34-8 8.51-15.13 17.84-24.14 25.43-3.32 2.79-6 6.37-8.78 9.75a6.54 6.54 0 0 0-1.31 6.51c0.86 2.18 3.21 1 4.85 1.06 7.3 0.4 14.5-1.4 21.84-0.94 7.92 0.5 13.22 7.2 11.25 15-3.28 13.07-8.95 25.45-10.28 39.13-1.63 17.43-3.82 34.63-3.06 52.23 0.73 16.83 1.27 33.59 3.16 50.38a285.06 285.06 0 0 0 6.83 39.11 325 325 0 0 0 23.38 62.09c7.79 15.85 15.35 31.94 27.66 45 5.58 5.91 11.08 12.12 18.64 15.79 3 1.46 11.66-1.64 11.3-4.34-0.45-3.4 0.24-6.79-0.19-10a454.62 454.62 0 0 1-4.47-54.62c-0.2-12.59 0.61-25.2 0.89-37.81 0.31-14.33 3.08-28.33 5.67-42.35 1.65-9 4.62-17.63 7.23-26.37 6.93-23.15 15.93-45.45 28-66.44a28.89 28.89 0 0 0 3.41-21.77c-3.53-15.26-7.22-30.48-10.87-45.7-3.13-13-6.41-26-3.4-39.54 0.42-1.88-0.15-4.61 2.94-4.19 8.56 1.15 13.52 6.64 15.23 15.27 0.74 3.73 0.85 7.48 1.4 11.2 1.59 10.69 4 21.16 6.4 31.69 3.71 16.45 8.53 32.67 15.75 47.7 10 20.74 21.54 40.69 35.91 59 14.56 18.52 28.94 37 46.89 52.51 13.86 12 28 23.48 44.58 31.47 11.1 5.34 21.26 12.63 33.46 15.78 3.39 0.87 4.83 0.18 6.1-2.78 1.8-4.22 2-8.85 1.84-13-0.55-16.66-2.63-33.26-2.72-57-0.23-10 1.44-26.86 6.13-43.28 2.5-8.73 9.4-10.65 17.87-9.93 3.74 0.31 5.33 6.58 3.92 13.7 0 0.14-0.28 0.25-0.3 0.39-1 6.61-4.52 12.52-5.44 19.17-1.76 12.76-0.58 25.58-1 38.37-0.08 2.4 0.53 4.88 2.88 5.87 2.19 0.92 4.1-0.65 5.76-2.06 6.4-5.4 13-10.62 19.11-16.32 7.75-7.2 15.42-14.54 22.57-22.32 7.31-8 13.31-17.19 21-24.68 8.72-8.46 15.61-18.26 23.11-27.61 6.62-8.26 11.78-17.73 18.6-25.81 7.49-8.88 8.32-18.27 4.62-28.44-1.79-5.13-3.47-10.22-4.79-15.42-0.94-3.66 1.41-5.94 3.71-8.23 1.94-1.93 3.48-0.94 5.46 0.15a30 30 0 0 1 12.43 13c8.58 16.73 20.13 31.48 32.66 45.14 14 15.3 28.24 30.81 46.31 41.82 6.08 3.7 11.59 8.4 19 9.7 8.59 1.52 12.66-1.32 13.32-9.93 0.1-1.36 0.25-2.56 1.43-3.51 4.33-3.53 10.45-2.6 14.39 1.6 6.63 7.08 9.66 16 12.17 24.86 4.87 17.17 11.72 33.79 14.54 51.56 1.55 9.83 5.13 19.23 6 29.3 0.71 8.53 1.48 17 2.09 25.6 0.89 12.39 2.13 24.75 1.52 37.18-0.46 9.23-1.28 18.44-2 27.67-0.78 10.79-1.94 21.53-4.52 32.09-4 16.31-7.43 32.75-12.48 48.79-4.5 14.3-8.32 28.87-17.08 41.42a28.66 28.66 0 0 0-4.95 10.59c-0.58 2.77 0.87 6.35 2.39 6.32 3.46-0.08 7.17 0.85 10.66-1.09a78.88 78.88 0 0 0 9.21-5.58c8.91-6.68 19.29-11.06 28-18 1.37-1.08 2.25-2.89 4.37-3 8.74-0.51 16.27 2.46 18.43 12.4 1.45 6.71 3.72 12.86 9.25 17.39 3.82 3.13 7.48 5 12.92 3.51 8.27-2.25 15.29-6.69 21.52-11.9 11-9.23 22.65-17.79 31.81-29.23 8.19-10.22 17.13-19.79 24.62-30.66 13.26-19.24 23.26-40.1 31.21-61.88a385.55 385.55 0 0 0 14-47.63c3.27-14.51 6.52-29 8.62-43.79 1.87-13.24 3.64-26.48 5.2-39.76 1.48-12.62 2.39-25.15-0.15-37.82-1.21-6.06-3.09-12.14-2.34-18.54 0.64-5.45 4.74-8.09 9.89-8.06 9.24 0.05 15.87 5.19 23.19 9.52 5.67 3.35 11 7.85 18.21 8 3.94 0.07 5.44-1.44 5.76-5.54 0.74-8.44-1.44-16.46-3.16-24.39zm-63.33-111.84c-3.47 8.29-10.13 13.46-17.59 18.45-6.94 4.64-10.85 1.68-16.08-2.1-16.83-12.18-28-28.91-38.26-46.41s-19.92-35.24-28.4-53.64a27.27 27.27 0 0 0-2.5-4.19c-3.31-4.69-8.86-3.92-11.64 0.64a211.81 211.81 0 0 0-17.62 36.61c-5.11 13.79-11 26.93-22.11 37.1-5.67 5.21-11.21 5.85-17.66 1.6-9.26-6.11-17.29-13.67-25.52-20.93-11.32-10-21.84-20.89-32.72-31.39-5.23-5-8.72-4-11.39 2.81-3.1 7.92-3.33 16.3-4.58 24.51-2 12.78-3.64 25.61-5.33 38.43-1.36 10.26-2.31 20.58-3.86 30.81-1.92 12.59-6.6 23.56-19.18 29.32a16.86 16.86 0 0 1-18.74-3.08c-5.88-5.72-11.79-11.35-13.47-20.05-0.41-2.14-0.3-4.22-0.75-6.65 1.53-11.49 2.8-23.38 4.76-35.15 2.17-13 4.69-26 6.49-39.12 1.56-11.35 3.93-22.58 5.13-34 1.29-12.45 3.88-24.72 6.49-37a99.9 99.9 0 0 1 9.37-26.51c5.58-10.39 19-12.5 30-5.5 6.87 4.38 12.42 10.31 18.49 15.61 13.49 11.77 25.74 24.84 38.58 37.28a50.49 50.49 0 0 0 9.82 7.21c3.81 2.24 5.46 0.95 7-2.07 7.44-14.7 14.35-29.68 22.33-44.07 8.39-15.13 16-30.89 28.3-43.47a46.15 46.15 0 0 1 20-11.78c2.31-0.7 4.41 0.22 6.52 1.38 8.67 4.74 11.18 13.65 14.75 21.74 2.43 5.5 3.52 11.34 7.62 16.37 2.63 3.24 2.71 8.62 4.26 13 2.93 8.27 7.29 15.85 10.78 23.83 5.35 12.21 11.33 24.18 17.72 35.89s13.48 23.3 20.69 34.66c5.57 8.78 10.55 18 17.94 25.58 4.08 4.22 2.29 9.67 0.36 14.28z"/>
  <path d="m247.27 629c0 16.3-0.23 32.61 0.11 48.9 0.13 6 0.81 12-1.15 17.9-3.58 10.71-15.6 21-24.52 20.69-8.69-0.3-14.78-5.58-20.42-11.44-5.82-6.06-6.84-13.82-7.33-21.69-2.11-33.7-0.55-67.44-0.88-101.15-0.06-6 0.42-12.24 3.43-17.61 3.6-6.43 10.17-9.55 16.32-13 10.49-5.88 17.4 1.83 24.58 7s9.81 13.25 9.82 22q0 24.21 0 48.4z"/>
  <path d="m513 639.7c0-9.82-0.28-19.66 0.1-29.46 0.28-7.16-1.2-14.15-1.07-21.28 0.29-15.11 6.8-26.62 20-33.62 4.33-2.29 10.11-2 14.86 0.21 8.8 4 13.92 10.7 16.53 20.41 3.8 14.12 2.47 28.11 2 42.28-0.28 8.42 0.06 16.89 0.37 25.34 0.49 13.57 1.05 27.22-0.39 40.81a92.22 92.22 0 0 0-0.11 10c0.07 17.22-15.77 28.3-32.07 24.74-7.46-1.62-11.89-8.3-15.22-15.11-4.32-8.8-4-18.46-4.86-27.86-0.53-6.12-0.16-12.31-0.18-18.47-0.02-6.01 0.04-12 0.04-17.99z"/>
 </g>
</svg>
